<svg xmlns="http://www.w3.org/2000/svg" viewBox="0 0 200 200">
    <defs>
        <linearGradient id="buyGradient" x1="0%" y1="0%" x2="100%" y2="100%">
            <stop offset="0%" stop-color="#00E676"/>
            <stop offset="100%" stop-color="#00C853"/>
        </linearGradient>
    </defs>
    <g>
        <path fill="url(#buyGradient)" d="M100,20 L130,80 L190,90 L145,135 L155,195 L100,165 L45,195 L55,135 L10,90 L70,80 Z"/>
        <text x="100" y="120" font-family="Arial" font-size="40" font-weight="bold" text-anchor="middle" fill="white">BUY</text>
        <g fill="#FFFFFF" opacity="0.3">
            <path d="M70,40 L90,30 L80,60 Z"/>
            <path d="M150,60 L170,50 L160,80 Z"/>
            <path d="M140,150 L160,140 L150,170 Z"/>
            <path d="M50,130 L70,120 L60,150 Z"/>
        </g>
        <g fill="#00E676" opacity="0.8">
            <rect x="20" y="45" width="25" height="15" rx="5"/>
            <rect x="160" y="65" width="25" height="15" rx="5"/>
            <rect x="130" y="145" width="25" height="15" rx="5"/>
            <rect x="40" y="165" width="25" height="15" rx="5"/>
        </g>
    </g>
</svg> 